<?xml version="1.0" standalone="no"?>
<!DOCTYPE svg PUBLIC "-//W3C//DTD SVG 20010904//EN"
 "http://www.w3.org/TR/2001/REC-SVG-20010904/DTD/svg10.dtd">
<svg version="1.0" xmlns="http://www.w3.org/2000/svg"
 width="500.000000pt" height="500.000000pt" viewBox="0 0 500.000000 500.000000"
 preserveAspectRatio="xMidYMid meet">
<metadata>
Created by potrace 1.11, written by Peter Selinger 2001-2013
</metadata>
<g transform="translate(0.000000,500.000000) scale(0.100000,-0.100000)"
fill="#000000" stroke="none">
<path d="M1532 3819 c-526 -68 -922 -465 -922 -924 0 -196 92 -341 297 -468
48 -29 183 -104 298 -166 294 -157 394 -239 454 -371 37 -82 24 -207 -35 -329
-36 -73 -159 -196 -239 -238 -33 -18 -101 -44 -150 -59 -80 -24 -107 -27 -240
-28 -163 -1 -251 16 -356 69 -83 43 -85 54 -65 307 9 117 19 223 22 236 4 22
4 22 -123 22 l-128 0 -71 -356 -71 -355 36 -18 c69 -35 184 -71 309 -98 115
-25 147 -27 337 -27 233 0 327 12 494 66 378 120 643 382 721 713 23 96 28
239 10 307 -50 182 -211 331 -498 458 -379 168 -484 240 -541 372 -29 66 -34
127 -17 207 49 235 224 405 469 455 190 40 404 -1 491 -93 l29 -30 -7 -201 -7
-200 114 0 114 0 61 307 c34 169 59 310 54 314 -10 9 -211 74 -291 94 -156 40
-394 54 -549 34z"/>
<path d="M2722 3663 c2 -69 6 -88 18 -90 8 -1 69 -5 134 -9 114 -6 121 -8 148
-34 l28 -28 0 -1087 c0 -1199 4 -1133 -62 -1153 -18 -6 -79 -14 -135 -17
l-103 -7 0 -84 0 -84 525 0 525 0 0 85 0 85 -42 1 c-24 0 -92 4 -153 8 -101 8
-111 11 -132 36 l-23 26 0 385 0 385 178 -7 c430 -17 730 78 934 294 146 155
218 345 218 578 0 442 -208 688 -653 768 -159 29 -317 36 -860 36 l-548 0 3
-87z m1213 -142 c119 -32 201 -76 271 -145 110 -111 148 -225 148 -446 0 -166
-13 -231 -71 -350 -44 -91 -131 -181 -220 -228 -128 -67 -324 -95 -511 -72
l-102 12 0 630 0 630 203 -5 c164 -3 217 -8 282 -26z"/>
</g>
</svg>
